# xmcd
#
# Track frame offsets: 
#        150
#        20104
#        42424
#        64149
#        79329
#        97806
#        112069
#        131871
#        144691
#        162831
#
# Disc length: 2257 seconds
#
# Revision: 0
# Processed by: cddbd v1.5.2PL0 Copyright (c) Steve Scherf et al.
# Submitted via: ExactAudioCopy v1.0b3
#
DISCID=9008cf0a
DTITLE=Harry Manx - Om Suite Ohm
DYEAR=2013
DGENRE=Blues
TTITLE0=? - Further Shore
TTITLE1=? - Way Out Back
TTITLE2=? - Love Supreme
TTITLE3=? - The Blues Dharma
TTITLE4=? - All Fall Down
TTITLE5=? - Saya
TTITLE6=? - The Moon Rose Up
TTITLE7=? - Carry My Tears
TTITLE8=? - Reuben's Train
TTITLE9=? - Stay Tuned
EXTD=
EXTT0=
EXTT1=
EXTT2=
EXTT3=
EXTT4=
EXTT5=
EXTT6=
EXTT7=
EXTT8=
EXTT9=
PLAYORDER=
